# xmcd CD database file
#
# Track frame offsets:
#	150
#	16542
#	32864
#	50254
#	65466
#	79344
#	92924
#	105500
#	119466
#	132258
#	146383
#	160322
#	174704
#	189461
#	203066
#	216569
#	234639
#	248260
#	261767
#	275622
#	294070
#	312001
#	323802
#	340867
#
# Disc length: 4703 seconds
#
# Revision: 0
# Processed by: cddbd v1.5.1PL0 Copyright (c) Steve Scherf et al.
# Submitted via: CDex 1.50Beta7
#
DISCID=53125d18
DTITLE=Carro Dourado - Vol.11
DYEAR=2005
DGENRE=Country
TTITLE0=Rick and Renner - Brega demais
TTITLE1=Chitãozinho and Xororó - Tradição gaúcha
TTITLE2=Zezé di Camargo and Luciano - Balançou
TTITLE3=Gian and Giovane - Pra lá de Bagdá
TTITLE4=Ataíde and Alexandre - Uai sô
TTITLE5=Cezar and Paulinho - Se tiver mulher nóis vai
TTITLE6=Edson and Hudson - Sapateia galera
TTITLE7=Daniel - Machuca eu
TTITLE8=Bruno and Marrone ( ao vivo)
TTITLE9=Rionegro and Solimões - Tendel
TTITLE10=Leonardo - Vai e vem
TTITLE11=Felipe and Falcão - Hoje tem show de bola
TTITLE12=Guilherme and Santiago - Lei do silêncio
TTITLE13=Gino and Geno - Nóis enverga mais não quebra
TTITLE14=Teodoro and Sampaio - é mentira dela
TTITLE15=Jean and Jauê - Bumbum
TTITLE16=Jad and Jeferson - O filé
TTITLE17=Rodrigo and Cristiano - Vai e vem
TTITLE18=Alison and Roberto - 100% do Brasil
TTITLE19=Juliano Cezar - Meu amor fugiu de mim
TTITLE20=Marcelinho de Lima - Trovejou, mas não choveu
TTITLE21=Pedro Paulo and Paulo - Quebradera
TTITLE22=Bruno and Marlow - Alô galera
TTITLE23=Rick and Renner - Pelejando
EXTD=YEAR: 2005
EXTT0=
EXTT1=
EXTT2=
EXTT3=
EXTT4=
EXTT5=
EXTT6=
EXTT7=
EXTT8=
EXTT9=
EXTT10=
EXTT11=
EXTT12=
EXTT13=
EXTT14=
EXTT15=
EXTT16=
EXTT17=
EXTT18=
EXTT19=
EXTT20=
EXTT21=
EXTT22=
EXTT23=
PLAYORDER=
